<svg xmlns="http://www.w3.org/2000/svg" x="0" y="0" enable-background="new 0 0 100 125" version="1.1" viewBox="0 0 100 125" xml:space="preserve"><path d="M29.7,61.3c2.5,0,16.5-4.9,16.5-10.8c0-1.1-0.9-2-2-2h0c-7.2,0.1-14,0.5-19,1c-1,0.1-1.8,1-1.8,2 C23.4,55.4,25.9,61.3,29.7,61.3z M44.2,50.5c0,4.1-12.3,8.8-14.5,8.8c-2.2,0-4.3-4.6-4.3-7.8C30.3,51,36.9,50.6,44.2,50.5z M70.3,61.3c3.8,0,6.3-5.9,6.3-9.8c0-1-0.8-1.9-1.8-2c-5.1-0.5-11.8-0.9-19-1h0c-1.2,0-2,1-2,2C53.8,56.4,67.8,61.3,70.3,61.3z M74.6,51.5c0,3.2-2.1,7.8-4.3,7.8c-2.2,0-14.5-4.7-14.5-8.8C63.1,50.6,69.7,51,74.6,51.5z M33.8,100c-2.2,0-4,1.8-4,4 c0,2.2,1.8,4,4,4s4-1.8,4-4C37.7,101.8,36,100,33.8,100z M33.8,106c-1.1,0-2-0.9-2-2c0-1.1,0.9-2,2-2c1.1,0,2,0.9,2,2 C35.7,105.1,34.9,106,33.8,106z M81.1,74.6c-1.1-0.8-2.3,0.8-1.2,1.6l2.6,1.9c1.1,0.8,2.3-0.8,1.2-1.6L81.1,74.6z M67.1,85.9 l-4.1,6.3c-0.8,1.2,1,2.1,1.7,1.1l4.1-6.3C69.5,85.8,67.9,84.7,67.1,85.9z M17.2,71.9l-2.6,1.9c-1.1,0.8,0.1,2.4,1.2,1.6l2.6-1.9 C19.4,72.7,18.2,71.1,17.2,71.9z M79.3,77.3c-1.1-0.8-2.3,0.8-1.2,1.6l2.6,1.9c1.1,0.8,2.3-0.8,1.2-1.6L79.3,77.3z M82.8,71.9 c-1.1-0.8-2.3,0.8-1.2,1.6l2.6,1.9c1.1,0.8,2.3-0.8,1.2-1.6L82.8,71.9z M87.3,66.1c-0.3-0.2-0.5-0.5-0.6-0.8l-0.1-0.6 c1.1-0.1,2-1.3,2-3v-7.2c0-1.6-1.2-3-2.7-3h-0.8l-0.1-1c0.2-0.2,0.4-0.5,0.4-0.8v-4c0-0.4-0.2-0.7-0.5-0.9 C84.8,23.7,73.1,13,50,13c-23.1,0-34.8,10.7-35,31.9c-0.3,0.2-0.5,0.5-0.5,0.9v4c0,0.3,0.1,0.6,0.4,0.8l-0.1,1.1H14 c-1.5,0-2.7,1.3-2.7,3v7.2c0,1.7,0.8,2.9,2,3l-0.1,0.6c0,0.4-0.3,0.7-0.6,0.8c-3.9,2.2-6.4,6.3-6.4,10.8c0,7.9,3.3,11.6,8.3,14.7 v3.6c0,8.6,7,15.7,15.7,15.7h6.5c2,0,3.8-0.9,5.1-2.3c0.4,0.9,1.6,1.9,3.1,1.3c1.1,1.7,2.8,1.1,3,1c1,1.5,3.2,1.6,4.2,0 c0.9,0.3,2.2,0.2,3-1c1.6,0.6,2.7-0.4,3.1-1.3c1.3,1.4,3.1,2.3,5.1,2.3h6.5c8.6,0,15.7-7,15.7-15.7v-3.6c5-3,8.3-6.8,8.3-14.7 C93.8,72.4,91.3,68.3,87.3,66.1z M86,53.5c0.3,0,0.7,0.4,0.7,1v7.2c0,0.5-0.1,0.8-0.2,0.9l-1-9.1C85.5,53.5,86,53.5,86,53.5z M50,15c21.8,0,32.6,9.6,33,29.2c-13-3.2-52.9-3.2-65.9,0C17.4,24.6,28.2,15,50,15z M16.5,46.4c10.5-3.4,56.4-3.4,67,0v1.9 c-10.5-2.9-53-3.8-67,0V46.4z M56.3,73c-3.5-2.4-9.1-2.4-12.6,0l-13.2,9.2l-6.3-9.8c0.6-1.9,1.4-3.8,2.4-5.6c0,0,0,0,0,0 c5.4-0.8,11.9-2.3,16.9-7.3c3.1-3.1,8.9-4,12.9-0.2c0,0.1,0.1,0.1,0.1,0.2c5,5,11.6,6.5,17,7.3c1,1.8,1.8,3.6,2.4,5.6l-6.3,9.8 L56.3,73z M59.3,77.5l-1.5-0.7c-4.5-2.1-11.1-2.1-15.6,0l-1.5,0.7l4.1-2.9c2.8-1.9,7.4-2,10.3,0L59.3,77.5z M21.4,58.1 c0.6,2.5,1.3,4.8,2.3,7c0.2,0.5,0.5,0.9,0.9,1.2c-0.7,1.3-1.3,2.6-1.8,4C20.5,66.6,20,62.1,21.4,58.1z M19.6,57.1l0.7-6.2 c0.1,1.3,0.2,2.5,0.4,3.8C20.3,55.5,19.9,56.3,19.6,57.1z M22.3,49.3c14.3-1.9,41.2-1.9,55.4,0c-0.1,5.2-1.3,10.6-3.2,15 c-0.2,0.4-0.6,0.6-1,0.6c-5.3-0.8-10.8-2.1-15.3-6.5c0-0.1-0.1-0.1-0.1-0.2c-4.4-4.4-11.5-4.4-15.9,0c-4.6,4.6-10.2,6-15.5,6.7 c-0.4,0.1-0.9-0.2-1-0.6C23.6,59.9,22.4,54.5,22.3,49.3z M75.5,66.3c0.4-0.3,0.6-0.7,0.9-1.2c1-2.1,1.7-4.5,2.3-7 c1.4,4,0.9,8.4-1.4,12.1C76.8,68.9,76.2,67.6,75.5,66.3z M79.3,54.7c0.2-1.3,0.3-2.5,0.4-3.8l0.7,6.2 C80.1,56.3,79.7,55.5,79.3,54.7z M13.3,54.5c0-0.6,0.3-1,0.7-1h0.5l-1,9.1c-0.1-0.2-0.2-0.5-0.2-0.9V54.5z M8.8,81.9 c-0.4-1.4-0.6-3.1-0.6-5.1c0-3.8,2-7.2,5.3-9c1-0.5,1.6-1.4,1.7-2.4l1.7-15.2c0.5-0.1,1-0.3,1.6-0.4l-2.2,18.3 c0,0.4-0.3,0.8-0.7,1C10.4,72,8.4,77.4,8.8,81.9z M14.8,89.3c-6.3-5.2-4.9-14.7,1.7-18.3c1-0.5,1.7-1.4,1.8-2.5l0.4-3.7 c0.3,2.4,1.1,4.7,2.4,6.8l7.6,11.8c-2,1-5.9,1.9-8.2,1.9C17.9,85.1,15.6,86.9,14.8,89.3z M44.6,107.5c0,0.7-1,0.7-1,0V98 c0-0.6,1-0.6,1,0V107.5z M47.5,108.5c0,0.6-1,0.6-1,0V96c0-0.7,1-0.7,1,0V108.5z M50.5,109.5c0,0.7-1,0.7-1,0V95c0-0.7,1-0.7,1,0 V109.5z M53.5,108.5c0,0.6-1,0.6-1,0V96c0-0.7,1-0.7,1,0V108.5z M56.5,107.5c0,0.7-1,0.7-1,0V98c0-0.7,1-0.7,1,0V107.5z M69.2,108.8h-5.9c-2.5,0-4.6-2-4.8-4.5V98c0-1.4-1.2-2.8-3-2.4c-0.3-1.8-2.1-2.3-3.3-1.9c-1-1.6-3.2-1.6-4.2,0 c-1.4-0.5-3,0.2-3.3,1.9c-1.7-0.4-3,1.1-3,2.4v6c0,2.7-2.2,4.9-4.9,4.9h-5.9c-6.5,0-6.5-9.7,0-9.7H36c2,0,4.3-1.3,5.4-3l2-3 C44,92,45.7,91,47,91h6c1.3,0,3,1,3.7,2.1l1.9,3c1,1.7,3.4,3,5.4,3h5.2C75.7,99.1,75.7,108.8,69.2,108.8z M83.5,95.2L83.5,95.2 c0,5.8-3.6,10.7-8.7,12.7c3.1-4.5,0-10.8-5.6-10.8H64c-1.3,0-3-1-3.7-2.1l-1.9-3c-1-1.7-3.4-3-5.4-3H47c-2,0-4.3,1.3-5.4,3l-2,3 c-0.7,1.1-2.4,2.1-3.7,2.1h-5.2c-5.4,0-8.8,6.2-5.6,10.8c-5.1-2-8.7-6.9-8.7-12.7v-4c0-2.2,1.8-4,4-4c2.5,0,6.4-0.9,8.7-2 l13.8-6.5c3.9-1.8,10.1-1.8,13.9,0l13.8,6.5c2.3,1.1,6.2,2,8.7,2c2.2,0,4,1.8,4,4L83.5,95.2L83.5,95.2z M85.2,89.3 c-0.8-2.4-3.1-4.1-5.7-4.1c-2.2,0-6.2-1-8.2-1.9l7.6-11.8c1.3-2.1,2.1-4.4,2.4-6.8l0.4,3.7c0.1,1.1,0.8,2.1,1.7,2.5 C90.2,74.6,91.4,84.2,85.2,89.3z M84.4,69.1c-0.4-0.2-0.6-0.5-0.7-0.9l-2.2-18.3c0.6,0.1,1.1,0.2,1.6,0.4l1.7,15.2 c0.1,1.1,0.8,2,1.7,2.4c3.3,1.8,5.3,5.3,5.3,9c0,2-0.2,3.6-0.6,5C91.6,77.8,89.8,72.1,84.4,69.1z M77.6,80 c-1.1-0.8-2.3,0.8-1.2,1.6l2.6,1.9c1.1,0.8,2.3-0.8,1.2-1.6L77.6,80z M20.7,77.3l-2.6,1.9c-1.1,0.8,0.1,2.4,1.2,1.6l2.6-1.9 C22.9,78.1,21.7,76.5,20.7,77.3z M18.9,74.6l-2.6,1.9c-1.1,0.8,0.1,2.4,1.2,1.6l2.6-1.9C21.2,75.4,20,73.8,18.9,74.6z M66.2,100 c-2.2,0-4,1.8-4,4c0,2.2,1.8,4,4,4s4-1.8,4-4C70.2,101.8,68.4,100,66.2,100z M66.2,106c-1.1,0-2-0.9-2-2c0-1.1,0.9-2,2-2 c1.1,0,2,0.9,2,2C68.2,105.1,67.3,106,66.2,106z M23.6,81.6c1.1-0.8-0.1-2.4-1.2-1.6l-2.6,1.9c-1.1,0.8,0.1,2.4,1.2,1.6L23.6,81.6 z M32.9,85.9c-0.7-1.1-2.4,0-1.7,1.1l4.1,6.3c0.7,1,2.5,0.1,1.7-1.1L32.9,85.9z"/></svg>